# xmcd
#
# Track frame offsets:
# 150
# 22681
# 35485
# 54003
# 76568
# 95800
# 111835
# 131849
# 147510
# 164667
#
# Disc length: 2459 seconds
#
# Revision: 0
# Processed by: cddbd v1.5.2PL0 Copyright (c) Steve Scherf et al.
# Submitted via: Audion 3.0.2 (http://www.panic.com/audion/)
#
DISCID=7c09990a
DTITLE=Buddy Rich Big Band -  - Buddy and Soul
DYEAR=1900
DGENRE=
TTITLE0=Soul Lady
TTITLE1=St. Petersburg Race
TTITLE2=Soul Kitchen
TTITLE3=Wonderbag
TTITLE4=Ruth
TTITLE5=Love And Peace
TTITLE6=Hello, I Love You
TTITLE7=Comin' Home Baby
TTITLE8=The Meaning Of The Blues
TTITLE9=Greensleeves
EXTD=
EXTT0=
EXTT1=
EXTT2=
EXTT3=
EXTT4=
EXTT5=
EXTT6=
EXTT7=
EXTT8=
EXTT9=
PLAYORDER=
